<mxfile host="app.diagrams.net" modified="2022-12-28T09:18:42.634Z" agent="5.0 (Macintosh; Intel Mac OS X 10_15_7) AppleWebKit/537.36 (KHTML, like Gecko) Chrome/108.0.0.0 Safari/537.36" etag="0czwPeD8JfdwFKgew0EK" version="20.2.2" type="github">
  <diagram id="prtHgNgQTEPvFCAcTncT" name="Page-1">
    <mxGraphModel dx="946" dy="646" grid="1" gridSize="10" guides="1" tooltips="1" connect="1" arrows="1" fold="1" page="1" pageScale="1" pageWidth="827" pageHeight="1169" math="0" shadow="0">
      <root>
        <mxCell id="0" />
        <mxCell id="1" parent="0" />
        <mxCell id="Z8pUoYo2S_-PwDnYIDu9-4" style="edgeStyle=orthogonalEdgeStyle;rounded=0;orthogonalLoop=1;jettySize=auto;html=1;entryX=0.613;entryY=0.013;entryDx=0;entryDy=0;entryPerimeter=0;" edge="1" parent="1" source="Z8pUoYo2S_-PwDnYIDu9-1" target="Z8pUoYo2S_-PwDnYIDu9-2">
          <mxGeometry relative="1" as="geometry" />
        </mxCell>
        <mxCell id="Z8pUoYo2S_-PwDnYIDu9-5" style="edgeStyle=orthogonalEdgeStyle;rounded=0;orthogonalLoop=1;jettySize=auto;html=1;entryX=0.5;entryY=0;entryDx=0;entryDy=0;" edge="1" parent="1" source="Z8pUoYo2S_-PwDnYIDu9-1" target="Z8pUoYo2S_-PwDnYIDu9-3">
          <mxGeometry relative="1" as="geometry" />
        </mxCell>
        <mxCell id="Z8pUoYo2S_-PwDnYIDu9-1" value="日夜" style="rhombus;whiteSpace=wrap;html=1;" vertex="1" parent="1">
          <mxGeometry x="70" y="70" width="80" height="80" as="geometry" />
        </mxCell>
        <mxCell id="Z8pUoYo2S_-PwDnYIDu9-2" value="太陽" style="ellipse;whiteSpace=wrap;html=1;aspect=fixed;" vertex="1" parent="1">
          <mxGeometry x="10" y="190" width="80" height="80" as="geometry" />
        </mxCell>
        <mxCell id="Z8pUoYo2S_-PwDnYIDu9-3" value="月亮" style="ellipse;whiteSpace=wrap;html=1;aspect=fixed;" vertex="1" parent="1">
          <mxGeometry x="130" y="190" width="80" height="80" as="geometry" />
        </mxCell>
        <mxCell id="Z8pUoYo2S_-PwDnYIDu9-6" value="太陽位置" style="whiteSpace=wrap;html=1;aspect=fixed;" vertex="1" parent="1">
          <mxGeometry x="10" y="290" width="50" height="50" as="geometry" />
        </mxCell>
        <mxCell id="Z8pUoYo2S_-PwDnYIDu9-7" value="亮度" style="whiteSpace=wrap;html=1;aspect=fixed;" vertex="1" parent="1">
          <mxGeometry x="65" y="300" width="30" height="30" as="geometry" />
        </mxCell>
        <mxCell id="Z8pUoYo2S_-PwDnYIDu9-8" value="位置" style="whiteSpace=wrap;html=1;aspect=fixed;" vertex="1" parent="1">
          <mxGeometry x="135" y="290" width="30" height="30" as="geometry" />
        </mxCell>
        <mxCell id="Z8pUoYo2S_-PwDnYIDu9-9" value="亮度" style="whiteSpace=wrap;html=1;aspect=fixed;" vertex="1" parent="1">
          <mxGeometry x="175" y="290" width="30" height="30" as="geometry" />
        </mxCell>
        <mxCell id="Z8pUoYo2S_-PwDnYIDu9-10" value="形狀" style="whiteSpace=wrap;html=1;aspect=fixed;" vertex="1" parent="1">
          <mxGeometry x="135" y="330" width="30" height="30" as="geometry" />
        </mxCell>
        <mxCell id="Z8pUoYo2S_-PwDnYIDu9-11" value="顏色" style="whiteSpace=wrap;html=1;aspect=fixed;" vertex="1" parent="1">
          <mxGeometry x="175" y="330" width="30" height="30" as="geometry" />
        </mxCell>
        <mxCell id="Z8pUoYo2S_-PwDnYIDu9-31" style="edgeStyle=orthogonalEdgeStyle;rounded=0;orthogonalLoop=1;jettySize=auto;html=1;entryX=0.613;entryY=0.013;entryDx=0;entryDy=0;entryPerimeter=0;" edge="1" parent="1" source="Z8pUoYo2S_-PwDnYIDu9-33" target="Z8pUoYo2S_-PwDnYIDu9-34">
          <mxGeometry relative="1" as="geometry" />
        </mxCell>
        <mxCell id="Z8pUoYo2S_-PwDnYIDu9-32" style="edgeStyle=orthogonalEdgeStyle;rounded=0;orthogonalLoop=1;jettySize=auto;html=1;entryX=0.5;entryY=0;entryDx=0;entryDy=0;" edge="1" parent="1" source="Z8pUoYo2S_-PwDnYIDu9-33" target="Z8pUoYo2S_-PwDnYIDu9-35">
          <mxGeometry relative="1" as="geometry" />
        </mxCell>
        <mxCell id="Z8pUoYo2S_-PwDnYIDu9-43" style="edgeStyle=orthogonalEdgeStyle;rounded=0;orthogonalLoop=1;jettySize=auto;html=1;exitX=0.5;exitY=1;exitDx=0;exitDy=0;entryX=0.588;entryY=-0.037;entryDx=0;entryDy=0;entryPerimeter=0;" edge="1" parent="1" source="Z8pUoYo2S_-PwDnYIDu9-33" target="Z8pUoYo2S_-PwDnYIDu9-42">
          <mxGeometry relative="1" as="geometry" />
        </mxCell>
        <mxCell id="Z8pUoYo2S_-PwDnYIDu9-33" value="雲（天氣）" style="rhombus;whiteSpace=wrap;html=1;" vertex="1" parent="1">
          <mxGeometry x="330" y="70" width="80" height="80" as="geometry" />
        </mxCell>
        <mxCell id="Z8pUoYo2S_-PwDnYIDu9-34" value="雨雲" style="ellipse;whiteSpace=wrap;html=1;aspect=fixed;" vertex="1" parent="1">
          <mxGeometry x="270" y="190" width="80" height="80" as="geometry" />
        </mxCell>
        <mxCell id="Z8pUoYo2S_-PwDnYIDu9-35" value="雲" style="ellipse;whiteSpace=wrap;html=1;aspect=fixed;" vertex="1" parent="1">
          <mxGeometry x="390" y="190" width="80" height="80" as="geometry" />
        </mxCell>
        <mxCell id="Z8pUoYo2S_-PwDnYIDu9-36" value="雨量" style="whiteSpace=wrap;html=1;aspect=fixed;" vertex="1" parent="1">
          <mxGeometry x="270" y="290" width="30" height="30" as="geometry" />
        </mxCell>
        <mxCell id="Z8pUoYo2S_-PwDnYIDu9-37" value="厚度" style="whiteSpace=wrap;html=1;aspect=fixed;" vertex="1" parent="1">
          <mxGeometry x="310" y="290" width="30" height="30" as="geometry" />
        </mxCell>
        <mxCell id="Z8pUoYo2S_-PwDnYIDu9-42" value="颱風雲" style="ellipse;whiteSpace=wrap;html=1;aspect=fixed;" vertex="1" parent="1">
          <mxGeometry x="520" y="190" width="80" height="80" as="geometry" />
        </mxCell>
        <mxCell id="Z8pUoYo2S_-PwDnYIDu9-45" value="位置" style="whiteSpace=wrap;html=1;aspect=fixed;" vertex="1" parent="1">
          <mxGeometry x="270" y="330" width="30" height="30" as="geometry" />
        </mxCell>
        <mxCell id="Z8pUoYo2S_-PwDnYIDu9-46" value="位置" style="whiteSpace=wrap;html=1;aspect=fixed;" vertex="1" parent="1">
          <mxGeometry x="395" y="290" width="30" height="30" as="geometry" />
        </mxCell>
        <mxCell id="Z8pUoYo2S_-PwDnYIDu9-47" value="厚度" style="whiteSpace=wrap;html=1;aspect=fixed;" vertex="1" parent="1">
          <mxGeometry x="435" y="290" width="30" height="30" as="geometry" />
        </mxCell>
        <mxCell id="Z8pUoYo2S_-PwDnYIDu9-48" value="位置" style="whiteSpace=wrap;html=1;aspect=fixed;" vertex="1" parent="1">
          <mxGeometry x="530" y="290" width="30" height="30" as="geometry" />
        </mxCell>
        <mxCell id="Z8pUoYo2S_-PwDnYIDu9-49" value="雷電" style="whiteSpace=wrap;html=1;aspect=fixed;" vertex="1" parent="1">
          <mxGeometry x="570" y="290" width="30" height="30" as="geometry" />
        </mxCell>
        <mxCell id="Z8pUoYo2S_-PwDnYIDu9-50" value="厚度" style="whiteSpace=wrap;html=1;aspect=fixed;" vertex="1" parent="1">
          <mxGeometry x="570" y="330" width="30" height="30" as="geometry" />
        </mxCell>
        <mxCell id="Z8pUoYo2S_-PwDnYIDu9-51" value="component" style="whiteSpace=wrap;html=1;aspect=fixed;" vertex="1" parent="1">
          <mxGeometry x="740" y="200" width="70" height="70" as="geometry" />
        </mxCell>
        <mxCell id="Z8pUoYo2S_-PwDnYIDu9-53" value="Entity" style="ellipse;whiteSpace=wrap;html=1;aspect=fixed;" vertex="1" parent="1">
          <mxGeometry x="740" y="110" width="70" height="70" as="geometry" />
        </mxCell>
        <mxCell id="Z8pUoYo2S_-PwDnYIDu9-54" value="system" style="rhombus;whiteSpace=wrap;html=1;" vertex="1" parent="1">
          <mxGeometry x="730" y="10" width="90" height="90" as="geometry" />
        </mxCell>
        <mxCell id="Z8pUoYo2S_-PwDnYIDu9-55" style="edgeStyle=orthogonalEdgeStyle;rounded=0;orthogonalLoop=1;jettySize=auto;html=1;entryX=0.613;entryY=0.013;entryDx=0;entryDy=0;entryPerimeter=0;" edge="1" parent="1" source="Z8pUoYo2S_-PwDnYIDu9-57" target="Z8pUoYo2S_-PwDnYIDu9-58">
          <mxGeometry relative="1" as="geometry" />
        </mxCell>
        <mxCell id="Z8pUoYo2S_-PwDnYIDu9-56" style="edgeStyle=orthogonalEdgeStyle;rounded=0;orthogonalLoop=1;jettySize=auto;html=1;entryX=0.5;entryY=0;entryDx=0;entryDy=0;" edge="1" parent="1" source="Z8pUoYo2S_-PwDnYIDu9-57" target="Z8pUoYo2S_-PwDnYIDu9-59">
          <mxGeometry relative="1" as="geometry" />
        </mxCell>
        <mxCell id="Z8pUoYo2S_-PwDnYIDu9-57" value="季節" style="rhombus;whiteSpace=wrap;html=1;" vertex="1" parent="1">
          <mxGeometry x="65" y="400" width="80" height="80" as="geometry" />
        </mxCell>
        <mxCell id="Z8pUoYo2S_-PwDnYIDu9-58" value="" style="ellipse;whiteSpace=wrap;html=1;aspect=fixed;" vertex="1" parent="1">
          <mxGeometry x="5" y="520" width="80" height="80" as="geometry" />
        </mxCell>
        <mxCell id="Z8pUoYo2S_-PwDnYIDu9-59" value="" style="ellipse;whiteSpace=wrap;html=1;aspect=fixed;" vertex="1" parent="1">
          <mxGeometry x="125" y="520" width="80" height="80" as="geometry" />
        </mxCell>
        <mxCell id="Z8pUoYo2S_-PwDnYIDu9-60" value="位置" style="whiteSpace=wrap;html=1;aspect=fixed;" vertex="1" parent="1">
          <mxGeometry x="5" y="620" width="30" height="30" as="geometry" />
        </mxCell>
        <mxCell id="Z8pUoYo2S_-PwDnYIDu9-61" value="亮度" style="whiteSpace=wrap;html=1;aspect=fixed;" vertex="1" parent="1">
          <mxGeometry x="45" y="620" width="30" height="30" as="geometry" />
        </mxCell>
        <mxCell id="Z8pUoYo2S_-PwDnYIDu9-62" value="位置" style="whiteSpace=wrap;html=1;aspect=fixed;" vertex="1" parent="1">
          <mxGeometry x="130" y="620" width="30" height="30" as="geometry" />
        </mxCell>
        <mxCell id="Z8pUoYo2S_-PwDnYIDu9-63" value="亮度" style="whiteSpace=wrap;html=1;aspect=fixed;" vertex="1" parent="1">
          <mxGeometry x="170" y="620" width="30" height="30" as="geometry" />
        </mxCell>
        <mxCell id="Z8pUoYo2S_-PwDnYIDu9-64" value="形狀" style="whiteSpace=wrap;html=1;aspect=fixed;" vertex="1" parent="1">
          <mxGeometry x="130" y="660" width="30" height="30" as="geometry" />
        </mxCell>
        <mxCell id="Z8pUoYo2S_-PwDnYIDu9-65" value="顏色" style="whiteSpace=wrap;html=1;aspect=fixed;" vertex="1" parent="1">
          <mxGeometry x="170" y="660" width="30" height="30" as="geometry" />
        </mxCell>
      </root>
    </mxGraphModel>
  </diagram>
</mxfile>
